<svg xmlns="http://www.w3.org/2000/svg" viewBox="0 0 1200 600" width="1200" height="600">
  
  <path d="M212.05 220L212.05 190.18L220.70 190.18Q225.61 190.18 228.17 192.30Q230.74 194.42 230.74 198.29L230.74 198.29Q230.74 200.72 229.24 202.44Q227.75 204.17 225.15 204.63L225.15 204.63Q228.47 205.05 230.23 206.92Q232.00 208.79 232.00 211.73L232.00 211.73Q232.00 215.67 229.29 217.84Q226.58 220 221.71 220L221.71 220L212.05 220ZM221.75 215.88Q224.56 215.88 225.99 214.75Q227.42 213.62 227.42 211.52L227.42 211.52Q227.42 209.33 225.95 208.11Q224.48 206.90 221.75 206.90L221.75 206.90L216.46 206.90L216.46 215.88L221.75 215.88ZM220.78 202.82Q226.16 202.82 226.16 198.58L226.16 198.58Q226.16 194.30 220.78 194.30L220.78 194.30L216.46 194.30L216.46 202.82L220.78 202.82Z M255.60 220.67Q250.85 220.67 248.14 217.75Q245.44 214.83 245.44 209.63L245.44 209.63L245.44 190.18L249.85 190.18L249.85 209.79Q249.85 213.07 251.32 214.81Q252.79 216.56 255.60 216.56L255.60 216.56Q258.41 216.56 259.88 214.81Q261.35 213.07 261.35 209.79L261.35 209.79L261.35 190.18L265.76 190.18L265.76 209.63Q265.76 214.83 263.05 217.75Q260.35 220.67 255.60 220.67L255.60 220.67Z M280.72 220L280.72 215.84L287.86 215.84L287.86 194.34L280.72 194.34L280.72 190.18L299.36 190.18L299.36 194.34L292.22 194.34L292.22 215.84L299.36 215.84L299.36 220L280.72 220Z M316.00 220L316.00 190.18L320.41 190.18L320.41 215.84L334.64 215.84L334.64 220L316.00 220Z M349.81 220L349.81 190.18L357.07 190.18Q361.06 190.18 363.96 191.92Q366.86 193.67 368.43 197.03Q370.01 200.39 370.01 205.13L370.01 205.13Q370.01 209.88 368.43 213.22Q366.86 216.56 363.96 218.28Q361.06 220 357.07 220L357.07 220L349.81 220ZM356.95 215.84Q361.02 215.84 363.22 213.13Q365.43 210.42 365.43 205.13L365.43 205.13Q365.43 199.80 363.22 197.07Q361.02 194.34 356.95 194.34L356.95 194.34L354.22 194.34L354.22 215.84L356.95 215.84Z   M459.38 210.00L459.38 204.46L465.10 204.46L465.10 210.00L459.38 210.00Z   M563.38 220L563.38 194.34L554.64 194.34L554.64 190.18L576.48 190.18L576.48 194.34L567.74 194.34L567.74 220L563.38 220Z M591.10 220L591.10 190.18L609.41 190.18L609.41 194.34L595.51 194.34L595.51 203.03L608.90 203.03L608.90 207.06L595.51 207.06L595.51 215.84L609.74 215.84L609.74 220L591.10 220Z M634.82 220.67Q629.99 220.67 627.01 217.86Q624.02 215.04 623.65 210.30L623.65 210.30L628.18 210.00Q628.60 213.20 630.37 214.88Q632.13 216.56 634.99 216.56L634.99 216.56Q637.72 216.56 639.21 215.49Q640.70 214.41 640.70 212.44L640.70 212.44Q640.70 211.05 640.07 210.07Q639.44 209.08 637.78 208.24Q636.12 207.40 633.01 206.52L633.01 206.52Q629.86 205.64 627.97 204.59Q626.08 203.54 625.20 202.00Q624.32 200.47 624.32 198.16L624.32 198.16Q624.32 195.60 625.54 193.65Q626.75 191.69 629.02 190.60Q631.29 189.51 634.36 189.51L634.36 189.51Q638.89 189.51 641.58 192.11Q644.27 194.72 644.73 199.17L644.73 199.17L640.19 199.42Q639.82 196.73 638.32 195.18Q636.83 193.62 634.23 193.62L634.23 193.62Q631.79 193.62 630.32 194.80Q628.85 195.98 628.85 197.95L628.85 197.95Q628.85 199.29 629.44 200.11Q630.03 200.93 631.44 201.58Q632.84 202.23 635.62 202.99L635.62 202.99Q639.19 203.96 641.29 205.22Q643.39 206.48 644.31 208.22Q645.23 209.96 645.23 212.44L645.23 212.44Q645.23 214.88 643.93 216.75Q642.63 218.61 640.28 219.64Q637.93 220.67 634.82 220.67L634.82 220.67Z M666.70 220L666.70 194.34L657.96 194.34L657.96 190.18L679.80 190.18L679.80 194.34L671.06 194.34L671.06 220L666.70 220Z   M769.34 210.00L769.34 204.46L775.06 204.46L775.06 210.00L769.34 210.00Z   M875.90 220.67Q871.07 220.67 868.09 217.86Q865.10 215.04 864.73 210.30L864.73 210.30L869.26 210.00Q869.68 213.20 871.45 214.88Q873.21 216.56 876.07 216.56L876.07 216.56Q878.80 216.56 880.29 215.49Q881.78 214.41 881.78 212.44L881.78 212.44Q881.78 211.05 881.15 210.07Q880.52 209.08 878.86 208.24Q877.20 207.40 874.09 206.52L874.09 206.52Q870.94 205.64 869.05 204.59Q867.16 203.54 866.28 202.00Q865.40 200.47 865.40 198.16L865.40 198.16Q865.40 195.60 866.62 193.65Q867.83 191.69 870.10 190.60Q872.37 189.51 875.44 189.51L875.44 189.51Q879.97 189.51 882.66 192.11Q885.35 194.72 885.81 199.17L885.81 199.17L881.27 199.42Q880.90 196.73 879.41 195.18Q877.91 193.62 875.31 193.62L875.31 193.62Q872.87 193.62 871.40 194.80Q869.93 195.98 869.93 197.95L869.93 197.95Q869.93 199.29 870.52 200.11Q871.11 200.93 872.52 201.58Q873.92 202.23 876.70 202.99L876.70 202.99Q880.27 203.96 882.37 205.22Q884.47 206.48 885.39 208.22Q886.31 209.96 886.31 212.44L886.31 212.44Q886.31 214.88 885.01 216.75Q883.71 218.61 881.36 219.64Q879.01 220.67 875.90 220.67L875.90 220.67Z M899.71 220L899.71 190.18L904.12 190.18L904.12 202.95L915.80 202.95L915.80 190.18L920.21 190.18L920.21 220L915.80 220L915.80 207.06L904.12 207.06L904.12 220L899.71 220Z M935.08 220L935.08 215.84L942.22 215.84L942.22 194.34L935.08 194.34L935.08 190.18L953.72 190.18L953.72 194.34L946.58 194.34L946.58 215.84L953.72 215.84L953.72 220L935.08 220Z M969.85 220L969.85 190.18L979.09 190.18Q983.80 190.18 986.61 192.68Q989.42 195.18 989.42 199.46L989.42 199.46Q989.42 202.28 988.14 204.38Q986.86 206.48 984.53 207.59Q982.20 208.70 979.09 208.70L979.09 208.70L974.26 208.70L974.26 220L969.85 220ZM978.63 204.54Q984.85 204.54 984.85 199.46L984.85 199.46Q984.85 194.34 978.63 194.34L978.63 194.34L974.26 194.34L974.26 204.54L978.63 204.54Z" fill="#E89055"></path>
  <path d="M201.94 292.84Q201.94 275.16 211.82 265.28Q221.70 255.40 241.72 255.40L241.72 255.40L266.16 255.40L266.16 278.02L245.36 278.02Q229.50 278.02 229.50 294.40L229.50 294.40L229.50 303.50L264.08 303.50L264.08 325.86L229.50 325.86L229.50 440L201.94 440L201.94 325.86L182.70 325.86L182.70 303.50L201.94 303.50L201.94 292.84Z M341.56 443.12Q321.80 443.12 306.98 434.15Q292.16 425.18 284.10 408.80Q276.04 392.42 276.04 370.84L276.04 370.84Q276.04 349.26 283.97 332.88Q291.90 316.50 306.59 307.53Q321.28 298.56 340.78 298.56L340.78 298.56Q359.76 298.56 374.06 307.27Q388.36 315.98 396.29 332.49Q404.22 349 404.22 371.88L404.22 371.88L404.22 378.90L304.90 378.90Q305.94 398.92 315.56 409.19Q325.18 419.46 341.82 419.46L341.82 419.46Q353.78 419.46 361.97 413.87Q370.16 408.28 373.54 398.40L373.54 398.40L402.14 400.22Q396.68 419.72 380.43 431.42Q364.18 443.12 341.56 443.12L341.56 443.12ZM374.84 358.10Q373.80 340.16 364.70 331.06Q355.60 321.96 340.78 321.96L340.78 321.96Q325.96 321.96 316.60 331.32Q307.24 340.68 304.90 358.10L304.90 358.10L374.84 358.10Z M423.46 440L423.46 301.68L448.68 301.68L449.46 325.60Q454.66 312.08 465.71 305.32Q476.76 298.56 491.32 298.56L491.32 298.56Q513.94 298.56 526.03 313.12Q538.12 327.68 538.12 351.08L538.12 351.08L538.12 440L510.56 440L510.56 359.40Q510.56 340.68 504.19 331.19Q497.82 321.70 483.78 321.70L483.78 321.70Q468.96 321.70 459.99 331.58Q451.02 341.46 451.02 359.40L451.02 359.40L451.02 440L423.46 440Z M623.14 443.12Q603.38 443.12 588.56 434.28Q573.74 425.44 565.55 409.06Q557.36 392.68 557.36 370.84L557.36 370.84Q557.36 349 565.55 332.62Q573.74 316.24 588.56 307.40Q603.38 298.56 623.14 298.56L623.14 298.56Q642.64 298.56 657.59 307.53Q672.54 316.50 680.60 332.75Q688.66 349 688.66 370.84L688.66 370.84Q688.66 392.68 680.60 408.93Q672.54 425.18 657.59 434.15Q642.64 443.12 623.14 443.12L623.14 443.12ZM623.14 419.20Q640.56 419.20 650.31 406.46Q660.06 393.72 660.06 370.84L660.06 370.84Q660.06 347.96 650.31 335.22Q640.56 322.48 623.14 322.48L623.14 322.48Q605.72 322.48 595.84 335.22Q585.96 347.96 585.96 370.84L585.96 370.84Q585.96 393.72 595.84 406.46Q605.72 419.20 623.14 419.20L623.14 419.20Z M707.90 440L707.90 301.68L733.12 301.68L733.90 327.94Q737.80 314.42 745.86 308.05Q753.92 301.68 766.92 301.68L766.92 301.68L780.18 301.68L780.18 326.38L766.92 326.38Q751.06 326.38 743.26 334.18Q735.46 341.98 735.46 358.36L735.46 358.36L735.46 440L707.90 440Z M791.36 440L791.36 407.24L825.16 407.24L825.16 440L791.36 440Z M844.40 440L844.40 301.68L871.96 301.68L871.96 440L844.40 440ZM843.88 281.66L843.88 254.10L872.74 254.10L872.74 281.66L843.88 281.66Z M938.52 443.12Q916.68 443.12 903.94 433.11Q891.20 423.10 891.20 405.42L891.20 405.42Q891.20 387.74 901.86 377.60Q912.52 367.46 935.40 363.04L935.40 363.04L982.98 353.94Q982.98 321.96 953.34 321.96L953.34 321.96Q927.60 321.96 922.14 345.10L922.14 345.10L893.54 343.28Q897.44 322.48 913.17 310.52Q928.90 298.56 953.34 298.56L953.34 298.56Q981.16 298.56 995.85 313.51Q1010.54 328.46 1010.54 355.50L1010.54 355.50L1010.54 409.32Q1010.54 414.26 1012.36 416.21Q1014.18 418.16 1018.08 418.16L1018.08 418.16L1023.02 418.16L1023.02 440Q1020.42 440.78 1012.88 440.78L1012.88 440.78Q1000.66 440.78 993.90 435.58Q987.14 430.38 985.32 418.68L985.32 418.68Q980.12 429.60 967.38 436.36Q954.64 443.12 938.52 443.12L938.52 443.12ZM943.20 421.28Q961.40 421.28 972.19 410.88Q982.98 400.48 982.98 383.58L982.98 383.58L982.98 374.74L942.68 382.54Q930.46 384.88 925.13 389.82Q919.80 394.76 919.80 402.82L919.80 402.82Q919.80 411.66 925.91 416.47Q932.02 421.28 943.20 421.28L943.20 421.28Z" fill="#F6F1EA"></path>
</svg>