<svg xmlns="http://www.w3.org/2000/svg" viewBox="0 0 1200 400" width="1200" height="400">
  
  <path d="M140.70 110.20Q140.70 89.80 152.10 78.40Q163.50 67 186.60 67L186.60 67L214.80 67L214.80 93.10L190.80 93.10Q172.50 93.10 172.50 112L172.50 112L172.50 122.50L212.40 122.50L212.40 148.30L172.50 148.30L172.50 280L140.70 280L140.70 148.30L118.50 148.30L118.50 122.50L140.70 122.50L140.70 110.20Z M301.80 283.60Q279.00 283.60 261.90 273.25Q244.80 262.90 235.50 244Q226.20 225.10 226.20 200.20L226.20 200.20Q226.20 175.30 235.35 156.40Q244.50 137.50 261.45 127.15Q278.40 116.80 300.90 116.80L300.90 116.80Q322.80 116.80 339.30 126.85Q355.80 136.90 364.95 155.95Q374.10 175 374.10 201.40L374.10 201.40L374.10 209.50L259.50 209.50Q260.70 232.60 271.80 244.45Q282.90 256.30 302.10 256.30L302.10 256.30Q315.90 256.30 325.35 249.85Q334.80 243.40 338.70 232L338.70 232L371.70 234.10Q365.40 256.60 346.65 270.10Q327.90 283.60 301.80 283.60L301.80 283.60ZM340.20 185.50Q339.00 164.80 328.50 154.30Q318.00 143.80 300.90 143.80L300.90 143.80Q283.80 143.80 273.00 154.60Q262.20 165.40 259.50 185.50L259.50 185.50L340.20 185.50Z M396.30 280L396.30 120.40L425.40 120.40L426.30 148Q432.30 132.40 445.05 124.60Q457.80 116.80 474.60 116.80L474.60 116.80Q500.70 116.80 514.65 133.60Q528.60 150.40 528.60 177.40L528.60 177.40L528.60 280L496.80 280L496.80 187Q496.80 165.40 489.45 154.45Q482.10 143.50 465.90 143.50L465.90 143.50Q448.80 143.50 438.45 154.90Q428.10 166.30 428.10 187L428.10 187L428.10 280L396.30 280Z M626.70 283.60Q603.90 283.60 586.80 273.40Q569.70 263.20 560.25 244.30Q550.80 225.40 550.80 200.20L550.80 200.20Q550.80 175 560.25 156.10Q569.70 137.20 586.80 127Q603.90 116.80 626.70 116.80L626.70 116.80Q649.20 116.80 666.45 127.15Q683.70 137.50 693 156.25Q702.30 175 702.30 200.20L702.30 200.20Q702.30 225.40 693 244.15Q683.70 262.90 666.45 273.25Q649.20 283.60 626.70 283.60L626.70 283.60ZM626.70 256Q646.80 256 658.05 241.30Q669.30 226.60 669.30 200.20L669.30 200.20Q669.30 173.80 658.05 159.10Q646.80 144.40 626.70 144.40L626.70 144.40Q606.60 144.40 595.20 159.10Q583.80 173.80 583.80 200.20L583.80 200.20Q583.80 226.60 595.20 241.30Q606.60 256 626.70 256L626.70 256Z M724.50 280L724.50 120.40L753.60 120.40L754.50 150.70Q759 135.10 768.30 127.75Q777.60 120.40 792.60 120.40L792.60 120.40L807.90 120.40L807.90 148.90L792.60 148.90Q774.30 148.90 765.30 157.90Q756.30 166.90 756.30 185.80L756.30 185.80L756.30 280L724.50 280Z M820.80 280L820.80 242.20L859.80 242.20L859.80 280L820.80 280Z M882 280L882 120.40L913.80 120.40L913.80 280L882 280ZM881.40 97.30L881.40 65.50L914.70 65.50L914.70 97.30L881.40 97.30Z M990.60 283.60Q965.40 283.60 950.70 272.05Q936 260.50 936 240.10L936 240.10Q936 219.70 948.30 208Q960.60 196.30 987 191.20L987 191.20L1041.90 180.70Q1041.90 143.80 1007.70 143.80L1007.70 143.80Q978 143.80 971.70 170.50L971.70 170.50L938.70 168.40Q943.20 144.40 961.35 130.60Q979.50 116.80 1007.70 116.80L1007.70 116.80Q1039.80 116.80 1056.75 134.05Q1073.70 151.30 1073.70 182.50L1073.70 182.50L1073.70 244.60Q1073.70 250.30 1075.80 252.55Q1077.90 254.80 1082.40 254.80L1082.40 254.80L1088.10 254.80L1088.10 280Q1085.10 280.90 1076.40 280.90L1076.40 280.90Q1062.30 280.90 1054.50 274.90Q1046.70 268.90 1044.60 255.40L1044.60 255.40Q1038.60 268 1023.90 275.80Q1009.20 283.60 990.60 283.60L990.60 283.60ZM996 258.40Q1017 258.40 1029.45 246.40Q1041.90 234.40 1041.90 214.90L1041.90 214.90L1041.90 204.70L995.40 213.70Q981.30 216.40 975.15 222.10Q969 227.80 969 237.10L969 237.10Q969 247.30 976.05 252.85Q983.10 258.40 996 258.40L996 258.40Z" fill="#F6F1EA"></path>
</svg>